<svg xmlns="http://www.w3.org/2000/svg" viewBox="0 0 48 48" fill="none">
<circle cx="24" cy="24" r="22" fill="#000"/>
<path d="M33.7 25.2c-.1-4.8 3.9-7.1 4.1-7.3-2.2-3.3-5.7-3.7-6.9-3.8-2.9-.3-5.7 1.7-7.2 1.7s-3.8-1.7-6.2-1.6c-3.2.1-6.1 1.9-7.7 4.7-3.3 5.7-.8 14.1 2.3 18.7 1.5 2.3 3.3 4.8 5.7 4.7 2.3-.1 3.2-1.5 6-1.5s3.6 1.5 6.1 1.4c2.5-.1 4-2.3 5.5-4.6 1.7-2.6 2.4-5.1 2.4-5.2-.1-.1-4.7-1.8-4.8-7.2z" fill="white"/>
<path d="M29.7 14.3c1.3-1.6 2.2-3.8 2-6-1.9.1-4.2 1.3-5.6 2.9-1.2 1.4-2.3 3.7-2 5.9 2.2.2 4.4-1.1 5.6-2.8z" fill="white"/>
</svg>
