<svg xmlns="http://www.w3.org/2000/svg" viewBox="0 0 48 48" fill="none">
<circle cx="24" cy="24" r="22" fill="#333"/>
<path fill-rule="evenodd" clip-rule="evenodd" d="M24 4C12.95 4 4 12.95 4 24c0 8.84 5.74 16.34 13.7 18.98 1 .18 1.37-.44 1.37-.97 0-.48-.02-2.04-.02-3.7-5.04.92-6.32-1.34-6.72-2.57-.22-.57-1.2-2.57-2.05-3.08-.7-.38-1.7-1.3-.03-1.32 1.58-.02 2.7 1.46 3.07 2.07 1.8 3.03 4.68 2.17 5.83 1.65.18-1.28.7-2.17 1.27-2.67-4.45-.5-9.1-2.23-9.1-9.87 0-2.18.78-3.97 2.07-5.37-.2-.5-.9-2.57.2-5.37 0 0 1.68-.54 5.5 2.05 1.6-.44 3.3-.67 5-.67s3.4.23 5 .67c3.82-2.59 5.5-2.05 5.5-2.05 1.1 2.8.4 4.87.2 5.37 1.28 1.4 2.07 3.2 2.07 5.37 0 7.66-4.67 9.37-9.12 9.87.72.62 1.35 1.82 1.35 3.68 0 2.67-.02 4.83-.02 5.5 0 .53.37 1.16 1.37.97C38.26 40.34 44 32.84 44 24 44 12.95 35.05 4 24 4z" fill="white"/>
</svg>
