<svg xmlns="http://www.w3.org/2000/svg" viewBox="0 0 48 48" fill="none">
<circle cx="24" cy="24" r="22" fill="#12B7F5"/>
<path d="M24 8c-5 0-9 4-9 9v5c0 3-2 5-4 6 0 0 1 2 3 3-1 1-2 3-2 5 0 1 1 2 3 2 0 2 4 4 9 4s9-2 9-4c2 0 3-1 3-2 0-2-1-4-2-5 2-1 3-3 3-3-2-1-4-3-4-6v-5c0-5-4-9-9-9z" fill="white"/>
<circle cx="20" cy="20" r="2" fill="#12B7F5"/>
<circle cx="28" cy="20" r="2" fill="#12B7F5"/>
<path d="M21 26c0 0 1.5 2 3 2s3-2 3-2" stroke="#12B7F5" stroke-width="1.5" stroke-linecap="round" fill="none"/>
</svg>
