<svg xmlns="http://www.w3.org/2000/svg" viewBox="0 0 48 48" fill="none">
<circle cx="24" cy="24" r="22" fill="#07C160"/>
<path d="M19.5 14c-5.5 0-10 3.8-10 8.5 0 2.7 1.5 5.1 3.8 6.7l-1 3 3.5-1.8c1.2.4 2.5.6 3.7.6.3 0 .7 0 1-.1-.2-.6-.3-1.2-.3-1.8 0-4.4 4-8 9-8 .3 0 .6 0 .9.1C29.3 17.3 25 14 19.5 14z" fill="white"/>
<circle cx="16" cy="18.5" r="1.5" fill="#07C160"/>
<circle cx="23" cy="18.5" r="1.5" fill="#07C160"/>
<path d="M36 22.5c0-3.9-3.6-7-8-7s-8 3.1-8 7c0 3.9 3.6 7 8 7 .9 0 1.8-.1 2.6-.4l2.5 1.3-.7-2.2c1.9-1.3 3.6-3.4 3.6-5.7z" fill="white"/>
<circle cx="32.5" cy="22" r="1.2" fill="#07C160"/>
<circle cx="39.5" cy="22" r="1.2" fill="#07C160"/>
</svg>
