<svg xmlns="http://www.w3.org/2000/svg" viewBox="0 0 48 48" fill="none">
<circle cx="24" cy="24" r="22" fill="#FF8200"/>
<path d="M20 32c-4 0-8-2-8-6 0-3 2-5 5-6 2-.5 4 0 5 1 1 1 2 1 3 0 1-1 2-1 3 0 1 1 2 1 3 0 3-1 5 0 5 3 0 4-4 8-8 8h-8z" fill="white"/>
<path d="M22 26c-1 0-2 .5-2 1.5S21 29 22 29s2-.5 2-1.5S23 26 22 26z" fill="#FF8200"/>
<path d="M28 24c-.5 0-1 .3-1 .8s.5.8 1 .8 1-.3 1-.8-.5-.8-1-.8z" fill="#FF8200"/>
<path d="M30 26c-.5 0-1 .3-1 .8s.5.8 1 .8 1-.3 1-.8-.5-.8-1-.8z" fill="#FF8200"/>
<path d="M16 14c-1 3 0 5 2 6" stroke="white" stroke-width="1.5" stroke-linecap="round" fill="none"/>
<path d="M34 12c1 2 1 4-1 6" stroke="white" stroke-width="1.5" stroke-linecap="round" fill="none"/>
</svg>
