<svg xmlns="http://www.w3.org/2000/svg" xmlns:xlink="http://www.w3.org/1999/xlink" contentStyleType="text/css" data-diagram-type="DESCRIPTION" height="911px" preserveAspectRatio="none" style="width:725px;height:911px;background:#FFFFFF;" version="1.1" viewBox="0 0 725 911" width="725px" zoomAndPan="magnify"><?plantuml 1.2026.3beta6?><defs/><g><!--cluster ???????????--><g class="cluster" data-qualified-name="..........." data-source-line="8" id="ent0004"><rect fill="none" height="595" rx="2.5" ry="2.5" style="stroke:#181818;stroke-width:1;" width="434.96" x="109" y="97.79"/><text fill="#000000" font-family="sans-serif" font-size="14" font-weight="700" lengthAdjust="spacing" textLength="153.9993" x="249.4803" y="112.7851">&#20849;&#20139;&#33258;&#20064;&#23460;&#39044;&#32422;&#31649;&#29702;&#31995;&#32479;</text></g><!--entity UC1--><g class="entity" data-qualified-name="............UC1" data-source-line="9" id="ent0005"><ellipse cx="191.7231" cy="403.7936" fill="#F1F1F1" rx="45.9331" ry="14.5236" style="stroke:#181818;stroke-width:0.5;"/><text fill="#000000" font-family="sans-serif" font-size="14" lengthAdjust="spacing" textLength="60.7166" x="161.3648" y="408.4421">&#27880;&#20876;/&#30331;&#24405;</text></g><!--entity UC2--><g class="entity" data-qualified-name="............UC2" data-source-line="10" id="ent0006"><ellipse cx="191.7173" cy="467.7936" fill="#F1F1F1" rx="52.4973" ry="14.5236" style="stroke:#181818;stroke-width:0.5;"/><text fill="#000000" font-family="sans-serif" font-size="14" lengthAdjust="spacing" textLength="69.9997" x="156.7174" y="472.4421">&#27983;&#35272;&#33258;&#20064;&#23460;</text></g><!--entity UC3--><g class="entity" data-qualified-name="............UC3" data-source-line="11" id="ent0007"><ellipse cx="455.7024" cy="149.7905" fill="#F1F1F1" rx="72.2524" ry="16.8505" style="stroke:#181818;stroke-width:0.5;"/><text fill="#000000" font-family="sans-serif" font-size="14" lengthAdjust="spacing" textLength="111.9995" x="399.7027" y="154.4389">&#26597;&#30475;&#26102;&#27573;&#24231;&#20301;&#29366;&#24577;</text></g><!--entity UC4--><g class="entity" data-qualified-name="............UC4" data-source-line="12" id="ent0008"><ellipse cx="191.7178" cy="147.7936" fill="#F1F1F1" rx="42.5978" ry="14.5236" style="stroke:#181818;stroke-width:0.5;"/><text fill="#000000" font-family="sans-serif" font-size="14" lengthAdjust="spacing" textLength="55.9998" x="163.7179" y="152.4421">&#39044;&#32422;&#24231;&#20301;</text></g><!--entity UC5--><g class="entity" data-qualified-name="............UC5" data-source-line="13" id="ent0009"><ellipse cx="455.6978" cy="215.7936" fill="#F1F1F1" rx="42.5978" ry="14.5236" style="stroke:#181818;stroke-width:0.5;"/><text fill="#000000" font-family="sans-serif" font-size="14" lengthAdjust="spacing" textLength="55.9998" x="427.6979" y="220.4421">&#25903;&#20184;&#35746;&#21333;</text></g><!--entity UC6--><g class="entity" data-qualified-name="............UC6" data-source-line="14" id="ent0010"><ellipse cx="191.7178" cy="211.7936" fill="#F1F1F1" rx="42.5978" ry="14.5236" style="stroke:#181818;stroke-width:0.5;"/><text fill="#000000" font-family="sans-serif" font-size="14" lengthAdjust="spacing" textLength="55.9998" x="163.7179" y="216.4421">&#25195;&#30721;&#31614;&#21040;</text></g><!--entity UC7--><g class="entity" data-qualified-name="............UC7" data-source-line="15" id="ent0011"><ellipse cx="191.7242" cy="275.7928" fill="#F1F1F1" rx="61.5142" ry="14.7028" style="stroke:#181818;stroke-width:0.5;"/><text fill="#000000" font-family="sans-serif" font-size="14" lengthAdjust="spacing" textLength="83.9996" x="149.7244" y="280.4413">&#26597;&#30475;&#39044;&#32422;&#35760;&#24405;</text></g><!--entity UC8--><g class="entity" data-qualified-name="............UC8" data-source-line="16" id="ent0012"><ellipse cx="191.7178" cy="339.7936" fill="#F1F1F1" rx="42.5978" ry="14.5236" style="stroke:#181818;stroke-width:0.5;"/><text fill="#000000" font-family="sans-serif" font-size="14" lengthAdjust="spacing" textLength="55.9998" x="163.7179" y="344.4421">&#21462;&#28040;&#39044;&#32422;</text></g><!--entity UC9--><g class="entity" data-qualified-name="............UC9" data-source-line="17" id="ent0013"><ellipse cx="191.7152" cy="660.785" fill="#F1F1F1" rx="66.7252" ry="15.745" style="stroke:#181818;stroke-width:0.5;"/><text fill="#000000" font-family="sans-serif" font-size="14" lengthAdjust="spacing" textLength="97.9996" x="142.7154" y="665.4335">&#31649;&#29702;&#33258;&#20064;&#23460;&#20449;&#24687;</text></g><!--entity UC10--><g class="entity" data-qualified-name="............UC10" data-source-line="18" id="ent0014"><ellipse cx="191.7242" cy="531.7928" fill="#F1F1F1" rx="61.5142" ry="14.7028" style="stroke:#181818;stroke-width:0.5;"/><text fill="#000000" font-family="sans-serif" font-size="14" lengthAdjust="spacing" textLength="83.9996" x="149.7244" y="536.4413">&#26597;&#30475;&#25152;&#26377;&#35746;&#21333;</text></g><!--entity UC11--><g class="entity" data-qualified-name="............UC11" data-source-line="19" id="ent0015"><ellipse cx="191.7178" cy="595.7936" fill="#F1F1F1" rx="42.5978" ry="14.5236" style="stroke:#181818;stroke-width:0.5;"/><text fill="#000000" font-family="sans-serif" font-size="14" lengthAdjust="spacing" textLength="55.9998" x="163.7179" y="600.4421">&#26631;&#35760;&#24322;&#24120;</text></g><!--entity User--><g class="entity" data-qualified-name="User" data-source-line="5" id="ent0002"><ellipse cx="33.9999" cy="221.64" fill="#F1F1F1" rx="16" ry="16" style="stroke:#181818;stroke-width:0.5;"/><path d="M33.9999,241.64 C37.9999,241.64 40.9999,241.64 44.9999,237.64 C52.9999,237.64 60.9999,245.64 60.9999,253.64 L60.9999,257.64 C60.9999,261.64 56.9999,265.64 52.9999,265.64 L14.9999,265.64 C10.9999,265.64 6.9999,261.64 6.9999,257.64 L6.9999,253.64 C6.9999,245.64 14.9999,237.64 22.9999,237.64 C26.9999,241.64 29.9999,241.64 33.9999,241.64" fill="#F1F1F1" style="stroke:#181818;stroke-width:0.5;"/><text fill="#000000" font-family="sans-serif" font-size="14" lengthAdjust="spacing" textLength="55.9998" x="6" y="279.1351">&#26222;&#36890;&#29992;&#25143;</text></g><!--entity Admin--><g class="entity" data-qualified-name="Admin" data-source-line="6" id="ent0003"><ellipse cx="34" cy="573.64" fill="#F1F1F1" rx="16" ry="16" style="stroke:#181818;stroke-width:0.5;"/><path d="M34,593.64 C38,593.64 41,593.64 45,589.64 C53,589.64 61,597.64 61,605.64 L61,609.64 C61,613.64 57,617.64 53,617.64 L15,617.64 C11,617.64 7,613.64 7,609.64 L7,605.64 C7,597.64 15,589.64 23,589.64 C27,593.64 30,593.64 34,593.64" fill="#F1F1F1" style="stroke:#181818;stroke-width:0.5;"/><text fill="#000000" font-family="sans-serif" font-size="14" lengthAdjust="spacing" textLength="41.9998" x="13.0001" y="631.1351">&#31649;&#29702;&#21592;</text></g><!--entity AuthSys--><g class="entity" data-qualified-name="AuthSys" data-source-line="22" id="ent0016"><ellipse cx="455.6998" cy="837.64" fill="#F1F1F1" rx="16" ry="16" style="stroke:#181818;stroke-width:0.5;"/><path d="M455.6998,857.64 C459.6998,857.64 462.6998,857.64 466.6998,853.64 C474.6998,853.64 482.6998,861.64 482.6998,869.64 L482.6998,873.64 C482.6998,877.64 478.6998,881.64 474.6998,881.64 L436.6998,881.64 C432.6998,881.64 428.6998,877.64 428.6998,873.64 L428.6998,869.64 C428.6998,861.64 436.6998,853.64 444.6998,853.64 C448.6998,857.64 451.6998,857.64 455.6998,857.64" fill="#F1F1F1" style="stroke:#181818;stroke-width:0.5;"/><text fill="#000000" font-family="sans-serif" font-size="14" lengthAdjust="spacing" textLength="83.9996" x="413.7" y="895.1351">&#29992;&#25143;&#36134;&#25143;&#31995;&#32479;</text></g><!--entity PaySys--><g class="entity" data-qualified-name="PaySys" data-source-line="23" id="ent0017"><ellipse cx="682.9599" cy="193.64" fill="#F1F1F1" rx="16" ry="16" style="stroke:#181818;stroke-width:0.5;"/><path d="M682.9599,213.64 C686.9599,213.64 689.9599,213.64 693.9599,209.64 C701.9599,209.64 709.9599,217.64 709.9599,225.64 L709.9599,229.64 C709.9599,233.64 705.9599,237.64 701.9599,237.64 L663.9599,237.64 C659.9599,237.64 655.9599,233.64 655.9599,229.64 L655.9599,225.64 C655.9599,217.64 663.9599,209.64 671.9599,209.64 C675.9599,213.64 678.9599,213.64 682.9599,213.64" fill="#F1F1F1" style="stroke:#181818;stroke-width:0.5;"/><text fill="#000000" font-family="sans-serif" font-size="14" lengthAdjust="spacing" textLength="55.9998" x="654.96" y="251.1351">&#25903;&#20184;&#31995;&#32479;</text></g><!--entity AccessSys--><g class="entity" data-qualified-name="AccessSys" data-source-line="24" id="ent0018"><ellipse cx="455.6998" cy="725.64" fill="#F1F1F1" rx="16" ry="16" style="stroke:#181818;stroke-width:0.5;"/><path d="M455.6998,745.64 C459.6998,745.64 462.6998,745.64 466.6998,741.64 C474.6998,741.64 482.6998,749.64 482.6998,757.64 L482.6998,761.64 C482.6998,765.64 478.6998,769.64 474.6998,769.64 L436.6998,769.64 C432.6998,769.64 428.6998,765.64 428.6998,761.64 L428.6998,757.64 C428.6998,749.64 436.6998,741.64 444.6998,741.64 C448.6998,745.64 451.6998,745.64 455.6998,745.64" fill="#F1F1F1" style="stroke:#181818;stroke-width:0.5;"/><text fill="#000000" font-family="sans-serif" font-size="14" lengthAdjust="spacing" textLength="83.9996" x="413.7" y="783.1351">&#38376;&#31105;&#25511;&#21046;&#31995;&#32479;</text></g><!--link User to UC1--><g class="link" data-entity-1="ent0002" data-entity-2="ent0005" data-link-type="dependency" data-source-line="26" id="lnk19"><path d="M46.5,282.83 C56.65,311.07 74.09,348.25 101,371.79 C115.07,384.1 128.4209,390.1568 145.4009,394.8968" fill="none" id="User-to-UC1" style="stroke:#181818;stroke-width:1;"/><polygon fill="#181818" points="151.18,396.51,143.5869,390.2374,146.3641,395.1656,141.4359,397.9429,151.18,396.51" style="stroke:#181818;stroke-width:1;"/></g><!--link User to UC2--><g class="link" data-entity-1="ent0002" data-entity-2="ent0006" data-link-type="dependency" data-source-line="27" id="lnk20"><path d="M38.48,282.87 C44.33,325.8 59.86,394.18 101,435.79 C113.09,448.02 124.411,453.9165 140.421,458.5965" fill="none" id="User-to-UC2" style="stroke:#181818;stroke-width:1;"/><polygon fill="#181818" points="146.18,460.28,138.6638,453.9155,141.3808,458.8771,136.4192,461.5941,146.18,460.28" style="stroke:#181818;stroke-width:1;"/></g><!--link User to UC3--><g class="link" data-entity-1="ent0002" data-entity-2="ent0007" data-link-type="dependency" data-source-line="28" id="lnk21"><path d="M37.46,204.94 C42.39,163.6 57.13,100.07 101,69.79 C193.43,6 248.21,41.57 353.45,80.79 C385.54,92.75 412.7524,113.0694 431.9124,129.3894" fill="none" id="User-to-UC3" style="stroke:#181818;stroke-width:1;"/><polygon fill="#181818" points="436.48,133.28,432.2223,124.399,432.6736,130.0378,427.0348,130.4892,436.48,133.28" style="stroke:#181818;stroke-width:1;"/></g><!--link User to UC4--><g class="link" data-entity-1="ent0002" data-entity-2="ent0008" data-link-type="dependency" data-source-line="29" id="lnk22"><path d="M62.26,212.17 C73.37,200.76 86.9,188.56 101,179.79 C117.99,169.22 133.2224,163.222 150.6124,158.012" fill="none" id="User-to-UC4" style="stroke:#181818;stroke-width:1;"/><polygon fill="#181818" points="156.36,156.29,146.5906,155.0412,151.5703,157.725,148.8866,162.7047,156.36,156.29" style="stroke:#181818;stroke-width:1;"/></g><!--link User to UC5--><g class="link" data-entity-1="ent0002" data-entity-2="ent0009" data-link-type="dependency" data-source-line="30" id="lnk23"><path d="M43.55,204.65 C52.4,174.55 69.51,134.98 101,115.79 C196.86,57.37 260.52,60.82 353.45,123.79 C378.13,140.52 361.94,163.15 383.45,183.79 C394.21,194.12 403.2717,199.3477 416.5017,204.3777" fill="none" id="User-to-UC5" style="stroke:#181818;stroke-width:1;"/><polygon fill="#181818" points="422.11,206.51,415.119,199.5727,417.4364,204.7331,412.276,207.0505,422.11,206.51" style="stroke:#181818;stroke-width:1;"/></g><!--link User to UC6--><g class="link" data-entity-1="ent0002" data-entity-2="ent0010" data-link-type="dependency" data-source-line="31" id="lnk24"><path d="M62.48,238.14 C88.07,232.89 120.4928,226.2277 148.5728,220.4577" fill="none" id="User-to-UC6" style="stroke:#181818;stroke-width:1;"/><polygon fill="#181818" points="154.45,219.25,144.8291,217.1434,149.5523,220.2564,146.4393,224.9796,154.45,219.25" style="stroke:#181818;stroke-width:1;"/></g><!--link User to UC7--><g class="link" data-entity-1="ent0002" data-entity-2="ent0011" data-link-type="dependency" data-source-line="32" id="lnk25"><path d="M62.48,249.44 C85.01,254.07 111.5231,259.511 138.1131,264.981" fill="none" id="User-to-UC7" style="stroke:#181818;stroke-width:1;"/><polygon fill="#181818" points="143.99,266.19,135.9806,260.4586,139.0926,265.1825,134.3686,268.2945,143.99,266.19" style="stroke:#181818;stroke-width:1;"/></g><!--link User to UC8--><g class="link" data-entity-1="ent0002" data-entity-2="ent0012" data-link-type="dependency" data-source-line="33" id="lnk26"><path d="M62.26,275.42 C73.37,286.82 86.9,299.03 101,307.79 C117.99,318.36 133.2224,324.368 150.6124,329.578" fill="none" id="User-to-UC8" style="stroke:#181818;stroke-width:1;"/><polygon fill="#181818" points="156.36,331.3,148.8866,324.8853,151.5703,329.865,146.5906,332.5488,156.36,331.3" style="stroke:#181818;stroke-width:1;"/></g><!--link Admin to UC9--><g class="link" data-entity-1="ent0003" data-entity-2="ent0013" data-link-type="dependency" data-source-line="35" id="lnk27"><path d="M61.7,609.48 C73.6,615.39 87.87,622.21 101,627.79 C117.65,634.87 130.7423,639.8742 146.7723,645.6242" fill="none" id="Admin-to-UC9" style="stroke:#181818;stroke-width:1;"/><polygon fill="#181818" points="152.42,647.65,145.2991,640.8462,147.7136,645.9618,142.598,648.3764,152.42,647.65" style="stroke:#181818;stroke-width:1;"/></g><!--link Admin to UC10--><g class="link" data-entity-1="ent0003" data-entity-2="ent0014" data-link-type="dependency" data-source-line="36" id="lnk28"><path d="M61.99,581.88 C73.82,576 87.96,569.26 101,563.79 C118.23,556.57 132.0668,551.4333 148.4768,545.7833" fill="none" id="Admin-to-UC10" style="stroke:#181818;stroke-width:1;"/><polygon fill="#181818" points="154.15,543.83,144.3381,542.9778,149.4224,545.4577,146.9425,550.542,154.15,543.83" style="stroke:#181818;stroke-width:1;"/></g><!--link Admin to UC11--><g class="link" data-entity-1="ent0003" data-entity-2="ent0015" data-link-type="dependency" data-source-line="37" id="lnk29"><path d="M61.77,595.79 C85.68,595.79 115.11,595.79 142.78,595.79" fill="none" id="Admin-to-UC11" style="stroke:#181818;stroke-width:1;"/><polygon fill="#181818" points="148.78,595.79,139.78,591.79,143.78,595.79,139.78,599.79,148.78,595.79" style="stroke:#181818;stroke-width:1;"/></g><!--link UC1 to AuthSys--><g class="link" data-entity-1="ent0005" data-entity-2="ent0016" data-link-type="dependency" data-source-line="39" id="lnk30"><path d="M227.88,413.14 C239.47,417.99 251.22,425.21 258.45,435.79 C305.22,504.28 236.68,743 288.45,807.79 C318.27,845.12 368.6279,855.7171 407.3979,858.7171" fill="none" id="UC1-to-AuthSys" style="stroke:#181818;stroke-width:1;stroke-dasharray:7,7;"/><polygon fill="#181818" points="413.38,859.18,404.7154,854.4976,408.3949,858.7943,404.0982,862.4737,413.38,859.18" style="stroke:#181818;stroke-width:1;"/><text fill="#000000" font-family="sans-serif" font-size="13" lengthAdjust="spacing" textLength="63.0068" x="289.45" y="803.8569">&#171;include&#187;</text></g><!--link UC5 to PaySys--><g class="link" data-entity-1="ent0009" data-entity-2="ent0017" data-link-type="dependency" data-source-line="40" id="lnk31"><path d="M498.54,215.79 C544.09,215.79 609.61,215.79 648.52,215.79" fill="none" id="UC5-to-PaySys" style="stroke:#181818;stroke-width:1;stroke-dasharray:7,7;"/><polygon fill="#181818" points="654.52,215.79,645.52,211.79,649.52,215.79,645.52,219.79,654.52,215.79" style="stroke:#181818;stroke-width:1;"/><text fill="#000000" font-family="sans-serif" font-size="13" lengthAdjust="spacing" textLength="63.0068" x="560.96" y="211.8569">&#171;include&#187;</text></g><!--link UC6 to AccessSys--><g class="link" data-entity-1="ent0010" data-entity-2="ent0018" data-link-type="dependency" data-source-line="41" id="lnk32"><path d="M225.11,221.23 C237.09,226.19 249.84,233.46 258.45,243.79 C391.04,402.94 267.78,520.95 383.45,692.79 C391.22,704.33 397.4078,710.8664 408.4278,719.2164" fill="none" id="UC6-to-AccessSys" style="stroke:#181818;stroke-width:1;stroke-dasharray:7,7;"/><polygon fill="#181818" points="413.21,722.84,408.4524,714.2165,409.2248,719.8204,403.6209,720.5928,413.21,722.84" style="stroke:#181818;stroke-width:1;"/><text fill="#000000" font-family="sans-serif" font-size="13" lengthAdjust="spacing" textLength="63.0068" x="289.45" y="286.8569">&#171;include&#187;</text></g><!--link UC4 to UC3--><g class="link" data-entity-1="ent0008" data-entity-2="ent0007" data-link-type="dependency" data-source-line="42" id="lnk33"><path d="M234.53,148.11 C274.47,148.42 329.4802,148.8334 377.1602,149.2034" fill="none" id="UC4-to-UC3" style="stroke:#181818;stroke-width:1;stroke-dasharray:7,7;"/><polygon fill="#181818" points="383.16,149.25,374.1913,145.1803,378.1602,149.2112,374.1292,153.18,383.16,149.25" style="stroke:#181818;stroke-width:1;"/><text fill="#000000" font-family="sans-serif" font-size="13" lengthAdjust="spacing" textLength="63.0068" x="289.45" y="144.8569">&#171;include&#187;</text></g><!--link UC4 to UC5--><g class="link" data-entity-1="ent0008" data-entity-2="ent0009" data-link-type="dependency" data-source-line="43" id="lnk34"><path d="M225,157.18 C243.52,162.5 267.25,169.19 288.45,174.79 C333.72,186.75 380.3742,198.126 414.0742,206.176" fill="none" id="UC4-to-UC5" style="stroke:#181818;stroke-width:1;stroke-dasharray:7,7;"/><polygon fill="#181818" points="419.91,207.57,412.0856,201.5884,415.0468,206.4083,410.2269,209.3695,419.91,207.57" style="stroke:#181818;stroke-width:1;"/><text fill="#000000" font-family="sans-serif" font-size="13" lengthAdjust="spacing" textLength="61.1851" x="290.45" y="170.8569">&#171;extend&#187;</text></g><?plantuml-src TP9_JzD06CV_lrTnsV-WXMs08KqCRy24y08ktJaQjexqkk1YJ3QZqAc892XWI1W4jaL2mI0JDz0tqxlhteLjhwtNWlsZoJVVp_FSywk2drlGga5JBozRiAIRMBFqcW78Ycwi8XDL8TAichbeDIeOeZLCQbKicQj8Mq5bBEmW5Xdb2WOW388vjk-Ccr_vJf_PFtCG4RX4i1cRt3dYdzRfzbxeF2rLTGE090VCqRVVtU6Pj_7D_TMXpidu-0qVTaKGlnhnqM4ElWJG_-e4QuZu4UogJzS_FEBx8thtMRote6IGwoslPoT98sWg0nsUyeFtR7V0d6iwxBbtc_pTW3LR4JsTfaLXWek8V2RVpeKxslESOxePbrN84Eqptcdnyz_Kleo8uaCrYRSyv_9VWpDfZcvzOGDRS14ncoR429CHk7-EMEiYGkSU74IxoGxQgVALnncmin4KTVkQtjp4Y09U9OSWJi3xqVN_yVA2fTUjvSK6ISubd9FaFqCDoHxlzdctnJxsg3sGasWQ9YJWG71US6923VSkYIbPJCiYBuk2B8goc975B03XjKPoBgNyoQIaubUreC39IJNk5Zw1y_EweLNg9Qoglbi8NT7hFRCeGkCUx_dvqFUx-gzJ21tymi96ILN_0W00?></g></svg>