<svg xmlns="http://www.w3.org/2000/svg" xmlns:xlink="http://www.w3.org/1999/xlink" contentStyleType="text/css" data-diagram-type="CLASS" height="398px" preserveAspectRatio="none" style="width:473px;height:398px;background:#FFFFFF;" version="1.1" viewBox="0 0 473 398" width="473px" zoomAndPan="magnify"><?plantuml 1.2026.3beta6?><defs/><g><!--cluster ???????????--><g class="cluster" data-qualified-name="..........." data-source-line="3" id="ent0002"><path d="M150.5,6 L305.4993,6 A3.75,3.75 0 0 1 307.9993,8.5 L314.9993,28.2969 L314.5,28.2969 A2.5,2.5 0 0 1 317,30.7969 L317,183.98 A2.5,2.5 0 0 1 314.5,186.48 L150.5,186.48 A2.5,2.5 0 0 1 148,183.98 L148,8.5 A2.5,2.5 0 0 1 150.5,6" fill="none" style="stroke:#000000;stroke-width:1.5;"/><line style="stroke:#000000;stroke-width:1.5;" x1="148" x2="314.9993" y1="28.2969" y2="28.2969"/><text fill="#000000" font-family="sans-serif" font-size="14" font-weight="700" lengthAdjust="spacing" textLength="153.9993" x="152" y="20.9951">&#20849;&#20139;&#33258;&#20064;&#23460;&#39044;&#32422;&#31649;&#29702;&#31995;&#32479;</text></g><!--cluster ????--><g class="cluster" data-qualified-name="...." data-source-line="13" id="ent0004"><path d="M8.5,235.48 L65.4998,235.48 A3.75,3.75 0 0 1 67.9998,237.98 L74.9998,257.7769 L455.5,257.7769 A2.5,2.5 0 0 1 458,260.2769 L458,380.87 A2.5,2.5 0 0 1 455.5,383.37 L8.5,383.37 A2.5,2.5 0 0 1 6,380.87 L6,237.98 A2.5,2.5 0 0 1 8.5,235.48" fill="none" style="stroke:#000000;stroke-width:1.5;"/><line style="stroke:#000000;stroke-width:1.5;" x1="6" x2="74.9998" y1="257.7769" y2="257.7769"/><text fill="#000000" font-family="sans-serif" font-size="14" font-weight="700" lengthAdjust="spacing" textLength="55.9998" x="10" y="250.4751">&#22806;&#37096;&#31995;&#32479;</text></g><!--class ??????--><g class="entity" data-qualified-name=".................." data-source-line="4" id="ent0003"><rect fill="#F1F1F1" height="129.4844" rx="2.5" ry="2.5" style="stroke:#181818;stroke-width:0.5;" width="115.9996" x="174" y="41"/><ellipse cx="189" cy="57" fill="#ADD1B2" rx="11" ry="11" style="stroke:#181818;stroke-width:1;"/><path d="M191.9688,62.6406 Q191.3906,62.9375 190.75,63.0781 Q190.1094,63.2344 189.4063,63.2344 Q186.9063,63.2344 185.5781,61.5938 Q184.2656,59.9375 184.2656,56.8125 Q184.2656,53.6875 185.5781,52.0313 Q186.9063,50.375 189.4063,50.375 Q190.1094,50.375 190.75,50.5313 Q191.4063,50.6875 191.9688,50.9844 L191.9688,53.7031 Q191.3438,53.125 190.75,52.8594 Q190.1563,52.5781 189.5313,52.5781 Q188.1875,52.5781 187.5,53.6563 Q186.8125,54.7188 186.8125,56.8125 Q186.8125,58.9063 187.5,59.9844 Q188.1875,61.0469 189.5313,61.0469 Q190.1563,61.0469 190.75,60.7813 Q191.3438,60.5 191.9688,59.9219 L191.9688,62.6406 Z " fill="#000000"/><text fill="#000000" font-family="sans-serif" font-size="14" lengthAdjust="spacing" textLength="83.9996" x="203" y="61.8467">&#39044;&#32422;&#31649;&#29702;&#31995;&#32479;</text><line style="stroke:#181818;stroke-width:0.5;" x1="175" x2="288.9996" y1="73" y2="73"/><text fill="#000000" font-family="sans-serif" font-size="14" lengthAdjust="spacing" textLength="95.7301" x="180" y="89.9951">+&#29992;&#25143;&#39044;&#32422;&#31649;&#29702;</text><text fill="#000000" font-family="sans-serif" font-size="14" lengthAdjust="spacing" textLength="67.7302" x="180" y="106.292">+&#25903;&#20184;&#22788;&#29702;</text><text fill="#000000" font-family="sans-serif" font-size="14" lengthAdjust="spacing" textLength="67.7302" x="180" y="122.5889">+&#31614;&#21040;&#39564;&#35777;</text><text fill="#000000" font-family="sans-serif" font-size="14" lengthAdjust="spacing" textLength="81.7302" x="180" y="138.8857">+&#33258;&#20064;&#23460;&#31649;&#29702;</text><text fill="#000000" font-family="sans-serif" font-size="14" lengthAdjust="spacing" textLength="67.7302" x="180" y="155.1826">+&#35746;&#21333;&#31649;&#29702;</text><line style="stroke:#181818;stroke-width:0.5;" x1="175" x2="288.9996" y1="162.4844" y2="162.4844"/></g><!--class ??????--><g class="entity" data-qualified-name="..........." data-source-line="14" id="ent0005"><rect fill="#F1F1F1" height="96.8906" rx="2.5" ry="2.5" style="stroke:#181818;stroke-width:0.5;" width="115.9996" x="22" y="270.48"/><ellipse cx="37" cy="286.48" fill="#ADD1B2" rx="11" ry="11" style="stroke:#181818;stroke-width:1;"/><path d="M39.9688,292.1206 Q39.3906,292.4175 38.75,292.5581 Q38.1094,292.7144 37.4063,292.7144 Q34.9063,292.7144 33.5781,291.0738 Q32.2656,289.4175 32.2656,286.2925 Q32.2656,283.1675 33.5781,281.5113 Q34.9063,279.855 37.4063,279.855 Q38.1094,279.855 38.75,280.0113 Q39.4063,280.1675 39.9688,280.4644 L39.9688,283.1831 Q39.3438,282.605 38.75,282.3394 Q38.1563,282.0581 37.5313,282.0581 Q36.1875,282.0581 35.5,283.1363 Q34.8125,284.1988 34.8125,286.2925 Q34.8125,288.3863 35.5,289.4644 Q36.1875,290.5269 37.5313,290.5269 Q38.1563,290.5269 38.75,290.2613 Q39.3438,289.98 39.9688,289.4019 L39.9688,292.1206 Z " fill="#000000"/><text fill="#000000" font-family="sans-serif" font-size="14" lengthAdjust="spacing" textLength="83.9996" x="51" y="291.3267">&#29992;&#25143;&#36134;&#25143;&#31995;&#32479;</text><line style="stroke:#181818;stroke-width:0.5;" x1="23" x2="136.9996" y1="302.48" y2="302.48"/><line style="stroke:#181818;stroke-width:0.5;" x1="23" x2="136.9996" y1="310.48" y2="310.48"/><text fill="#000000" font-family="sans-serif" font-size="14" lengthAdjust="spacing" textLength="50.6542" x="28" y="327.4751">+&#27880;&#20876;()</text><text fill="#000000" font-family="sans-serif" font-size="14" lengthAdjust="spacing" textLength="50.6542" x="28" y="343.772">+&#30331;&#24405;()</text><text fill="#000000" font-family="sans-serif" font-size="14" lengthAdjust="spacing" textLength="78.6541" x="28" y="360.0689">+&#36523;&#20221;&#39564;&#35777;()</text></g><!--class ????--><g class="entity" data-qualified-name="........." data-source-line="19" id="ent0006"><rect fill="#F1F1F1" height="96.8906" rx="2.5" ry="2.5" style="stroke:#181818;stroke-width:0.5;" width="118.6539" x="172.67" y="270.48"/><ellipse cx="201.4644" cy="286.48" fill="#ADD1B2" rx="11" ry="11" style="stroke:#181818;stroke-width:1;"/><path d="M204.4331,292.1206 Q203.855,292.4175 203.2144,292.5581 Q202.5738,292.7144 201.8706,292.7144 Q199.3706,292.7144 198.0425,291.0738 Q196.73,289.4175 196.73,286.2925 Q196.73,283.1675 198.0425,281.5113 Q199.3706,279.855 201.8706,279.855 Q202.5738,279.855 203.2144,280.0113 Q203.8706,280.1675 204.4331,280.4644 L204.4331,283.1831 Q203.8081,282.605 203.2144,282.3394 Q202.6206,282.0581 201.9956,282.0581 Q200.6519,282.0581 199.9644,283.1363 Q199.2769,284.1988 199.2769,286.2925 Q199.2769,288.3863 199.9644,289.4644 Q200.6519,290.5269 201.9956,290.5269 Q202.6206,290.5269 203.2144,290.2613 Q203.8081,289.98 204.4331,289.4019 L204.4331,292.1206 Z " fill="#000000"/><text fill="#000000" font-family="sans-serif" font-size="14" lengthAdjust="spacing" textLength="55.9998" x="218.5298" y="291.3267">&#25903;&#20184;&#31995;&#32479;</text><line style="stroke:#181818;stroke-width:0.5;" x1="173.67" x2="290.3239" y1="302.48" y2="302.48"/><line style="stroke:#181818;stroke-width:0.5;" x1="173.67" x2="290.3239" y1="310.48" y2="310.48"/><text fill="#000000" font-family="sans-serif" font-size="14" lengthAdjust="spacing" textLength="92.654" x="178.67" y="327.4751">+&#21019;&#24314;&#25903;&#20184;&#21333;()</text><text fill="#000000" font-family="sans-serif" font-size="14" lengthAdjust="spacing" textLength="106.6539" x="178.67" y="343.772">+&#26597;&#35810;&#25903;&#20184;&#29366;&#24577;()</text><text fill="#000000" font-family="sans-serif" font-size="14" lengthAdjust="spacing" textLength="50.6542" x="178.67" y="360.0689">+&#36864;&#27454;()</text></g><!--class ??????--><g class="entity" data-qualified-name="..........." data-source-line="24" id="ent0007"><rect fill="#F1F1F1" height="96.8906" rx="2.5" ry="2.5" style="stroke:#181818;stroke-width:0.5;" width="115.9996" x="326" y="270.48"/><ellipse cx="341" cy="286.48" fill="#ADD1B2" rx="11" ry="11" style="stroke:#181818;stroke-width:1;"/><path d="M343.9688,292.1206 Q343.3906,292.4175 342.75,292.5581 Q342.1094,292.7144 341.4063,292.7144 Q338.9063,292.7144 337.5781,291.0738 Q336.2656,289.4175 336.2656,286.2925 Q336.2656,283.1675 337.5781,281.5113 Q338.9063,279.855 341.4063,279.855 Q342.1094,279.855 342.75,280.0113 Q343.4063,280.1675 343.9688,280.4644 L343.9688,283.1831 Q343.3438,282.605 342.75,282.3394 Q342.1563,282.0581 341.5313,282.0581 Q340.1875,282.0581 339.5,283.1363 Q338.8125,284.1988 338.8125,286.2925 Q338.8125,288.3863 339.5,289.4644 Q340.1875,290.5269 341.5313,290.5269 Q342.1563,290.5269 342.75,290.2613 Q343.3438,289.98 343.9688,289.4019 L343.9688,292.1206 Z " fill="#000000"/><text fill="#000000" font-family="sans-serif" font-size="14" lengthAdjust="spacing" textLength="83.9996" x="355" y="291.3267">&#38376;&#31105;&#25511;&#21046;&#31995;&#32479;</text><line style="stroke:#181818;stroke-width:0.5;" x1="327" x2="440.9996" y1="302.48" y2="302.48"/><line style="stroke:#181818;stroke-width:0.5;" x1="327" x2="440.9996" y1="310.48" y2="310.48"/><text fill="#000000" font-family="sans-serif" font-size="14" lengthAdjust="spacing" textLength="92.654" x="332" y="327.4751">+&#39564;&#35777;&#20837;&#22330;&#30721;()</text><text fill="#000000" font-family="sans-serif" font-size="14" lengthAdjust="spacing" textLength="78.6541" x="332" y="343.772">+&#24320;&#38376;&#25511;&#21046;()</text><text fill="#000000" font-family="sans-serif" font-size="14" lengthAdjust="spacing" textLength="78.6541" x="332" y="360.0689">+&#35760;&#24405;&#20986;&#20837;()</text></g><!--link ?????? to ??????--><g class="link" data-entity-1="ent0003" data-entity-2="ent0005" data-link-type="dependency" data-source-line="31" id="lnk8"><path codeLine="31" d="M173.63,165.92 C163.24,177.62 152.91,190.12 144,202.48 C128.79,223.58 117.2652,243.3456 106.0552,264.7356" fill="none" id="&#39044;&#32422;&#31649;&#29702;&#31995;&#32479;-to-&#29992;&#25143;&#36134;&#25143;&#31995;&#32479;" style="stroke:#181818;stroke-width:1;"/><polygon fill="#181818" points="103.27,270.05,110.9907,263.9352,105.591,265.6213,103.9048,260.2216,103.27,270.05" style="stroke:#181818;stroke-width:1;"/><text fill="#000000" font-family="sans-serif" font-size="13" lengthAdjust="spacing" textLength="78.0001" x="145" y="215.5469">&#36523;&#20221;&#35748;&#35777;&#25509;&#21475;</text></g><!--link ?????? to ????--><g class="link" data-entity-1="ent0003" data-entity-2="ent0006" data-link-type="dependency" data-source-line="32" id="lnk9"><path codeLine="32" d="M232,170.96 C232,202.88 232,234.78 232,264.1" fill="none" id="&#39044;&#32422;&#31649;&#29702;&#31995;&#32479;-to-&#25903;&#20184;&#31995;&#32479;" style="stroke:#181818;stroke-width:1;"/><polygon fill="#181818" points="232,270.1,236,261.1,232,265.1,228,261.1,232,270.1" style="stroke:#181818;stroke-width:1;"/><text fill="#000000" font-family="sans-serif" font-size="13" lengthAdjust="spacing" textLength="82.38" x="233" y="215.5469">&#25903;&#20184;/&#36864;&#27454;&#25509;&#21475;</text></g><!--link ?????? to ??????--><g class="link" data-entity-1="ent0003" data-entity-2="ent0007" data-link-type="dependency" data-source-line="33" id="lnk10"><path codeLine="33" d="M290.3,162.09 C302.17,174.77 314.06,188.62 324,202.48 C339.01,223.4 349.9373,243.1787 360.3373,264.6787" fill="none" id="&#39044;&#32422;&#31649;&#29702;&#31995;&#32479;-to-&#38376;&#31105;&#25511;&#21046;&#31995;&#32479;" style="stroke:#181818;stroke-width:1;"/><polygon fill="#181818" points="362.95,270.08,362.6318,260.2363,360.7727,265.5789,355.4301,263.7199,362.95,270.08" style="stroke:#181818;stroke-width:1;"/><text fill="#000000" font-family="sans-serif" font-size="13" lengthAdjust="spacing" textLength="78.0001" x="334" y="215.5469">&#20837;&#22330;&#39564;&#35777;&#25509;&#21475;</text></g><?plantuml-src VL7DJi906BptAJQSD8RecOE9Hyy-GIN441G9u4NJf4H-6WFe0Vo99Y0MR40B1eEn5Pwct-xsBLpTXko6rJqqsMzsvfkP5ZBfR4xFwqSeUQWN2Zl5OZwzVr9CxIQFitlfqnJQqhISdipe1oaKWyfRu8reRHXyTi6rmrwPU0FYFfAhAfdwnE_4q9c6sFdLGgju1F-S3KHQ3hO-n4S2Y5lZmBy5kooFoUi2h4auhDDnIHWlBQteKBS7ZROmDZH3J6HVX-UEoZntHzy7xAimZwSELEjhwwAtEn_cRMb4lL7WpxdT23247JoaGXsiU_2zg8E6h8axVJhkHTIB6JPB4XoQ9dvPA9Q5DmuPb73p6QoPOYKt2PK-F7YaAsl2bydOd2hdSoSiCjGynbkkPFqg_dmylgtgD15rH5sRhSVDFbm-_KMNwaf4rqqU-7-c8di2yQmyDwT_0m00?></g></svg>