<svg xmlns="http://www.w3.org/2000/svg" xmlns:xlink="http://www.w3.org/1999/xlink" contentStyleType="text/css" data-diagram-type="CLASS" height="629px" preserveAspectRatio="none" style="width:770px;height:629px;background:#FFFFFF;" version="1.1" viewBox="0 0 770 629" width="770px" zoomAndPan="magnify"><?plantuml 1.2026.3beta6?><defs/><g><!--class User--><g class="entity" data-qualified-name="User" data-source-line="3" id="ent0002"><rect fill="#F1F1F1" height="145.7813" rx="2.5" ry="2.5" style="stroke:#181818;stroke-width:0.5;" width="160.8799" x="493.62" y="7"/><ellipse cx="553.8549" cy="23" fill="#ADD1B2" rx="11" ry="11" style="stroke:#181818;stroke-width:1;"/><path d="M556.8236,28.6406 Q556.2455,28.9375 555.6049,29.0781 Q554.9642,29.2344 554.2611,29.2344 Q551.7611,29.2344 550.433,27.5938 Q549.1205,25.9375 549.1205,22.8125 Q549.1205,19.6875 550.433,18.0313 Q551.7611,16.375 554.2611,16.375 Q554.9642,16.375 555.6049,16.5313 Q556.2611,16.6875 556.8236,16.9844 L556.8236,19.7031 Q556.1986,19.125 555.6049,18.8594 Q555.0111,18.5781 554.3861,18.5781 Q553.0424,18.5781 552.3549,19.6563 Q551.6674,20.7188 551.6674,22.8125 Q551.6674,24.9063 552.3549,25.9844 Q553.0424,27.0469 554.3861,27.0469 Q555.0111,27.0469 555.6049,26.7813 Q556.1986,26.5 556.8236,25.9219 L556.8236,28.6406 Z " fill="#000000"/><text fill="#000000" font-family="sans-serif" font-size="14" lengthAdjust="spacing" textLength="31.9102" x="574.3549" y="27.8467">User</text><line style="stroke:#181818;stroke-width:0.5;" x1="494.62" x2="653.4999" y1="39" y2="39"/><text fill="#000000" font-family="sans-serif" font-size="14" lengthAdjust="spacing" textLength="104.002" x="499.62" y="55.9951">-userId : String</text><text fill="#000000" font-family="sans-serif" font-size="14" lengthAdjust="spacing" textLength="100.1533" x="499.62" y="72.292">-name : String</text><text fill="#000000" font-family="sans-serif" font-size="14" lengthAdjust="spacing" textLength="104.2617" x="499.62" y="88.5889">-phone : String</text><text fill="#000000" font-family="sans-serif" font-size="14" lengthAdjust="spacing" textLength="148.8799" x="499.62" y="104.8857">-creditScore : Integer</text><line style="stroke:#181818;stroke-width:0.5;" x1="494.62" x2="653.4999" y1="112.1875" y2="112.1875"/><text fill="#000000" font-family="sans-serif" font-size="14" lengthAdjust="spacing" textLength="56.7588" x="499.62" y="129.1826">+login()</text><text fill="#000000" font-family="sans-serif" font-size="14" lengthAdjust="spacing" textLength="136.623" x="499.62" y="145.4795">+getReservations()</text></g><!--class StudyRoom--><g class="entity" data-qualified-name="StudyRoom" data-source-line="12" id="ent0003"><rect fill="#F1F1F1" height="145.7813" rx="2.5" ry="2.5" style="stroke:#181818;stroke-width:0.5;" width="140.1328" x="83" y="237.93"/><ellipse cx="110.2471" cy="253.93" fill="#ADD1B2" rx="11" ry="11" style="stroke:#181818;stroke-width:1;"/><path d="M113.2159,259.5706 Q112.6377,259.8675 111.9971,260.0081 Q111.3565,260.1644 110.6534,260.1644 Q108.1534,260.1644 106.8252,258.5238 Q105.5127,256.8675 105.5127,253.7425 Q105.5127,250.6175 106.8252,248.9613 Q108.1534,247.305 110.6534,247.305 Q111.3565,247.305 111.9971,247.4613 Q112.6534,247.6175 113.2159,247.9144 L113.2159,250.6331 Q112.5909,250.055 111.9971,249.7894 Q111.4034,249.5081 110.7784,249.5081 Q109.4346,249.5081 108.7471,250.5863 Q108.0596,251.6488 108.0596,253.7425 Q108.0596,255.8363 108.7471,256.9144 Q109.4346,257.9769 110.7784,257.9769 Q111.4034,257.9769 111.9971,257.7113 Q112.5909,257.43 113.2159,256.8519 L113.2159,259.5706 Z " fill="#000000"/><text fill="#000000" font-family="sans-serif" font-size="14" lengthAdjust="spacing" textLength="80.917" x="126.9687" y="258.7767">StudyRoom</text><line style="stroke:#181818;stroke-width:0.5;" x1="84" x2="222.1328" y1="269.93" y2="269.93"/><text fill="#000000" font-family="sans-serif" font-size="14" lengthAdjust="spacing" textLength="109.9902" x="89" y="286.9251">-roomId : String</text><text fill="#000000" font-family="sans-serif" font-size="14" lengthAdjust="spacing" textLength="100.1533" x="89" y="303.222">-name : String</text><text fill="#000000" font-family="sans-serif" font-size="14" lengthAdjust="spacing" textLength="115.999" x="89" y="319.5189">-location : String</text><text fill="#000000" font-family="sans-serif" font-size="14" lengthAdjust="spacing" textLength="128.1328" x="89" y="335.8157">-capacity : Integer</text><line style="stroke:#181818;stroke-width:0.5;" x1="84" x2="222.1328" y1="343.1175" y2="343.1175"/><text fill="#000000" font-family="sans-serif" font-size="14" lengthAdjust="spacing" textLength="84.5059" x="89" y="360.1126">+getSeats()</text><text fill="#000000" font-family="sans-serif" font-size="14" lengthAdjust="spacing" textLength="114.4609" x="89" y="376.4095">+getTimeSlots()</text></g><!--class Seat--><g class="entity" data-qualified-name="Seat" data-source-line="21" id="ent0004"><rect fill="#F1F1F1" height="129.4844" rx="2.5" ry="2.5" style="stroke:#181818;stroke-width:0.5;" width="160.8867" x="208.62" y="477.01"/><ellipse cx="269.0292" cy="493.01" fill="#ADD1B2" rx="11" ry="11" style="stroke:#181818;stroke-width:1;"/><path d="M271.9979,498.6506 Q271.4198,498.9475 270.7792,499.0881 Q270.1386,499.2444 269.4354,499.2444 Q266.9354,499.2444 265.6073,497.6038 Q264.2948,495.9475 264.2948,492.8225 Q264.2948,489.6975 265.6073,488.0413 Q266.9354,486.385 269.4354,486.385 Q270.1386,486.385 270.7792,486.5413 Q271.4354,486.6975 271.9979,486.9944 L271.9979,489.7131 Q271.3729,489.135 270.7792,488.8694 Q270.1854,488.5881 269.5604,488.5881 Q268.2167,488.5881 267.5292,489.6663 Q266.8417,490.7288 266.8417,492.8225 Q266.8417,494.9163 267.5292,495.9944 Q268.2167,497.0569 269.5604,497.0569 Q270.1854,497.0569 270.7792,496.7913 Q271.3729,496.51 271.9979,495.9319 L271.9979,498.6506 Z " fill="#000000"/><text fill="#000000" font-family="sans-serif" font-size="14" lengthAdjust="spacing" textLength="31.5684" x="289.5292" y="497.8567">Seat</text><line style="stroke:#181818;stroke-width:0.5;" x1="209.62" x2="368.5067" y1="509.01" y2="509.01"/><text fill="#000000" font-family="sans-serif" font-size="14" lengthAdjust="spacing" textLength="103.4414" x="214.62" y="526.0051">-seatId : String</text><text fill="#000000" font-family="sans-serif" font-size="14" lengthAdjust="spacing" textLength="109.4639" x="214.62" y="542.302">-seatNo : String</text><text fill="#000000" font-family="sans-serif" font-size="14" lengthAdjust="spacing" textLength="148.8867" x="214.62" y="558.5989">-seatType : SeatType</text><text fill="#000000" font-family="sans-serif" font-size="14" lengthAdjust="spacing" textLength="137.8672" x="214.62" y="574.8957">-status : SeatStatus</text><line style="stroke:#181818;stroke-width:0.5;" x1="209.62" x2="368.5067" y1="582.1975" y2="582.1975"/><text fill="#000000" font-family="sans-serif" font-size="14" lengthAdjust="spacing" textLength="98.0273" x="214.62" y="599.1926">+isAvailable()</text></g><!--class TimeSlot--><g class="entity" data-qualified-name="TimeSlot" data-source-line="29" id="ent0005"><rect fill="#F1F1F1" height="113.1875" rx="2.5" ry="2.5" style="stroke:#181818;stroke-width:0.5;" width="166.123" x="7" y="485.16"/><ellipse cx="55.0498" cy="501.16" fill="#ADD1B2" rx="11" ry="11" style="stroke:#181818;stroke-width:1;"/><path d="M58.0186,506.8006 Q57.4404,507.0975 56.7998,507.2381 Q56.1592,507.3944 55.4561,507.3944 Q52.9561,507.3944 51.6279,505.7537 Q50.3154,504.0975 50.3154,500.9725 Q50.3154,497.8475 51.6279,496.1912 Q52.9561,494.535 55.4561,494.535 Q56.1592,494.535 56.7998,494.6912 Q57.4561,494.8475 58.0186,495.1444 L58.0186,497.8631 Q57.3936,497.285 56.7998,497.0194 Q56.2061,496.7381 55.5811,496.7381 Q54.2373,496.7381 53.5498,497.8162 Q52.8623,498.8787 52.8623,500.9725 Q52.8623,503.0662 53.5498,504.1444 Q54.2373,505.2069 55.5811,505.2069 Q56.2061,505.2069 56.7998,504.9412 Q57.3936,504.66 58.0186,504.0819 L58.0186,506.8006 Z " fill="#000000"/><text fill="#000000" font-family="sans-serif" font-size="14" lengthAdjust="spacing" textLength="61.5234" x="75.5498" y="506.0067">TimeSlot</text><line style="stroke:#181818;stroke-width:0.5;" x1="8" x2="172.123" y1="517.16" y2="517.16"/><text fill="#000000" font-family="sans-serif" font-size="14" lengthAdjust="spacing" textLength="98.7041" x="13" y="534.1551">-slotId : String</text><text fill="#000000" font-family="sans-serif" font-size="14" lengthAdjust="spacing" textLength="154.123" x="13" y="550.452">-startTime : DateTime</text><text fill="#000000" font-family="sans-serif" font-size="14" lengthAdjust="spacing" textLength="147.8887" x="13" y="566.7489">-endTime : DateTime</text><text fill="#000000" font-family="sans-serif" font-size="14" lengthAdjust="spacing" textLength="110.5986" x="13" y="583.0457">-price : Decimal</text><line style="stroke:#181818;stroke-width:0.5;" x1="8" x2="172.123" y1="590.3475" y2="590.3475"/></g><!--class Reservation--><g class="entity" data-qualified-name="Reservation" data-source-line="36" id="ent0006"><rect fill="#F1F1F1" height="162.0781" rx="2.5" ry="2.5" style="stroke:#181818;stroke-width:0.5;" width="201.9844" x="382.07" y="229.78"/><ellipse cx="436.9694" cy="245.78" fill="#ADD1B2" rx="11" ry="11" style="stroke:#181818;stroke-width:1;"/><path d="M439.9382,251.4206 Q439.36,251.7175 438.7194,251.8581 Q438.0788,252.0144 437.3757,252.0144 Q434.8757,252.0144 433.5475,250.3737 Q432.235,248.7175 432.235,245.5925 Q432.235,242.4675 433.5475,240.8112 Q434.8757,239.155 437.3757,239.155 Q438.0788,239.155 438.7194,239.3112 Q439.3757,239.4675 439.9382,239.7644 L439.9382,242.4831 Q439.3132,241.905 438.7194,241.6394 Q438.1257,241.3581 437.5007,241.3581 Q436.1569,241.3581 435.4694,242.4362 Q434.7819,243.4987 434.7819,245.5925 Q434.7819,247.6862 435.4694,248.7644 Q436.1569,249.8269 437.5007,249.8269 Q438.1257,249.8269 438.7194,249.5612 Q439.3132,249.28 439.9382,248.7019 L439.9382,251.4206 Z " fill="#000000"/><text fill="#000000" font-family="sans-serif" font-size="14" lengthAdjust="spacing" textLength="83.6855" x="457.4694" y="250.6267">Reservation</text><line style="stroke:#181818;stroke-width:0.5;" x1="383.07" x2="583.0544" y1="261.78" y2="261.78"/><text fill="#000000" font-family="sans-serif" font-size="14" lengthAdjust="spacing" textLength="153.1797" x="388.07" y="278.7751">-reservationId : String</text><text fill="#000000" font-family="sans-serif" font-size="14" lengthAdjust="spacing" textLength="189.9844" x="388.07" y="295.072">-status : ReservationStatus</text><text fill="#000000" font-family="sans-serif" font-size="14" lengthAdjust="spacing" textLength="166.2637" x="388.07" y="311.3689">-createTime : DateTime</text><line style="stroke:#181818;stroke-width:0.5;" x1="383.07" x2="583.0544" y1="318.6706" y2="318.6706"/><text fill="#000000" font-family="sans-serif" font-size="14" lengthAdjust="spacing" textLength="76.002" x="388.07" y="335.6657">+confirm()</text><text fill="#000000" font-family="sans-serif" font-size="14" lengthAdjust="spacing" textLength="68.0039" x="388.07" y="351.9626">+cancel()</text><text fill="#000000" font-family="sans-serif" font-size="14" lengthAdjust="spacing" textLength="76.4053" x="388.07" y="368.2595">+checkin()</text><text fill="#000000" font-family="sans-serif" font-size="14" lengthAdjust="spacing" textLength="115.5479" x="388.07" y="384.5564">+markNoShow()</text></g><!--class Order--><g class="entity" data-qualified-name="Order" data-source-line="46" id="ent0007"><rect fill="#F1F1F1" height="145.7813" rx="2.5" ry="2.5" style="stroke:#181818;stroke-width:0.5;" width="158.3301" x="596.9" y="468.86"/><ellipse cx="651.7994" cy="484.86" fill="#ADD1B2" rx="11" ry="11" style="stroke:#181818;stroke-width:1;"/><path d="M654.7682,490.5006 Q654.19,490.7975 653.5494,490.9381 Q652.9088,491.0944 652.2057,491.0944 Q649.7057,491.0944 648.3775,489.4538 Q647.065,487.7975 647.065,484.6725 Q647.065,481.5475 648.3775,479.8913 Q649.7057,478.235 652.2057,478.235 Q652.9088,478.235 653.5494,478.3913 Q654.2057,478.5475 654.7682,478.8444 L654.7682,481.5631 Q654.1432,480.985 653.5494,480.7194 Q652.9557,480.4381 652.3307,480.4381 Q650.9869,480.4381 650.2994,481.5163 Q649.6119,482.5788 649.6119,484.6725 Q649.6119,486.7663 650.2994,487.8444 Q650.9869,488.9069 652.3307,488.9069 Q652.9557,488.9069 653.5494,488.6413 Q654.1432,488.36 654.7682,487.7819 L654.7682,490.5006 Z " fill="#000000"/><text fill="#000000" font-family="sans-serif" font-size="14" lengthAdjust="spacing" textLength="40.0313" x="672.2994" y="489.7067">Order</text><line style="stroke:#181818;stroke-width:0.5;" x1="597.9" x2="754.2301" y1="500.86" y2="500.86"/><text fill="#000000" font-family="sans-serif" font-size="14" lengthAdjust="spacing" textLength="111.043" x="602.9" y="517.8551">-orderId : String</text><text fill="#000000" font-family="sans-serif" font-size="14" lengthAdjust="spacing" textLength="129.7734" x="602.9" y="534.152">-amount : Decimal</text><text fill="#000000" font-family="sans-serif" font-size="14" lengthAdjust="spacing" textLength="146.3301" x="602.9" y="550.4489">-status : OrderStatus</text><text fill="#000000" font-family="sans-serif" font-size="14" lengthAdjust="spacing" textLength="138.2705" x="602.9" y="566.7457">-payTransId : String</text><line style="stroke:#181818;stroke-width:0.5;" x1="597.9" x2="754.2301" y1="574.0475" y2="574.0475"/><text fill="#000000" font-family="sans-serif" font-size="14" lengthAdjust="spacing" textLength="48.4053" x="602.9" y="591.0426">+pay()</text><text fill="#000000" font-family="sans-serif" font-size="14" lengthAdjust="spacing" textLength="68.585" x="602.9" y="607.3395">+refund()</text></g><!--class Violation--><g class="entity" data-qualified-name="Violation" data-source-line="55" id="ent0008"><rect fill="#F1F1F1" height="96.8906" rx="2.5" ry="2.5" style="stroke:#181818;stroke-width:0.5;" width="157.5986" x="404.26" y="493.3"/><ellipse cx="448.1861" cy="509.3" fill="#ADD1B2" rx="11" ry="11" style="stroke:#181818;stroke-width:1;"/><path d="M451.1549,514.9406 Q450.5767,515.2375 449.9361,515.3781 Q449.2955,515.5344 448.5924,515.5344 Q446.0924,515.5344 444.7642,513.8938 Q443.4517,512.2375 443.4517,509.1125 Q443.4517,505.9875 444.7642,504.3312 Q446.0924,502.675 448.5924,502.675 Q449.2955,502.675 449.9361,502.8312 Q450.5924,502.9875 451.1549,503.2844 L451.1549,506.0031 Q450.5299,505.425 449.9361,505.1594 Q449.3424,504.8781 448.7174,504.8781 Q447.3736,504.8781 446.6861,505.9562 Q445.9986,507.0187 445.9986,509.1125 Q445.9986,511.2062 446.6861,512.2844 Q447.3736,513.3469 448.7174,513.3469 Q449.3424,513.3469 449.9361,513.0813 Q450.5299,512.8 451.1549,512.2219 L451.1549,514.9406 Z " fill="#000000"/><text fill="#000000" font-family="sans-serif" font-size="14" lengthAdjust="spacing" textLength="61.3184" x="468.6142" y="514.1467">Violation</text><line style="stroke:#181818;stroke-width:0.5;" x1="405.26" x2="560.8586" y1="525.3" y2="525.3"/><text fill="#000000" font-family="sans-serif" font-size="14" lengthAdjust="spacing" textLength="133.4922" x="410.26" y="542.2951">-violationId : String</text><text fill="#000000" font-family="sans-serif" font-size="14" lengthAdjust="spacing" textLength="145.5986" x="410.26" y="558.592">-type : ViolationType</text><text fill="#000000" font-family="sans-serif" font-size="14" lengthAdjust="spacing" textLength="138.291" x="410.26" y="574.8889">-description : String</text><line style="stroke:#181818;stroke-width:0.5;" x1="405.26" x2="560.8586" y1="582.1906" y2="582.1906"/></g><!--link User to Reservation--><g class="link" data-entity-1="ent0002" data-entity-2="ent0006" data-link-type="association" data-source-line="61" id="lnk9"><path codeLine="61" d="M545.39,153.01 C535.76,177.26 524.94,204.45 515.07,229.3" fill="none" id="User-Reservation" style="stroke:#181818;stroke-width:1;"/><polygon fill="#000000" points="534.2133,195.9929,540.2851,188.6728,534.8228,186.5019,534.2133,195.9929" style="stroke:#000000;stroke-width:1;"/><text fill="#000000" font-family="sans-serif" font-size="13" lengthAdjust="spacing" textLength="26" x="545.06" y="195.8469">&#21019;&#24314;</text><text fill="#000000" font-family="sans-serif" font-size="13" lengthAdjust="spacing" textLength="8.271" x="534.2891" y="172.7673">1</text><text fill="#000000" font-family="sans-serif" font-size="13" lengthAdjust="spacing" textLength="6.5" x="511.5843" y="218.7225">*</text></g><!--link StudyRoom to Seat--><g class="link" data-entity-1="ent0003" data-entity-2="ent0004" data-link-type="association" data-source-line="62" id="lnk10"><path codeLine="62" d="M192.52,384.13 C202.6,402.12 213.56,421.29 224.06,438.86 C231.44,451.2 239.52,464.23 247.4,476.69" fill="none" id="StudyRoom-Seat" style="stroke:#181818;stroke-width:1;"/><polygon fill="#000000" points="231.61,434.7273,229.525,425.4481,224.469,428.4458,231.61,434.7273" style="stroke:#000000;stroke-width:1;"/><text fill="#000000" font-family="sans-serif" font-size="13" lengthAdjust="spacing" textLength="26" x="238.06" y="434.9269">&#21253;&#21547;</text><text fill="#000000" font-family="sans-serif" font-size="13" lengthAdjust="spacing" textLength="8.271" x="187.8009" y="403.6526">1</text><text fill="#000000" font-family="sans-serif" font-size="13" lengthAdjust="spacing" textLength="6.5" x="236.5423" y="465.8277">*</text></g><!--link StudyRoom to TimeSlot--><g class="link" data-entity-1="ent0003" data-entity-2="ent0005" data-link-type="association" data-source-line="63" id="lnk11"><path codeLine="63" d="M133.21,383.94 C124.23,416.57 113.78,454.55 105.41,484.96" fill="none" id="StudyRoom-TimeSlot" style="stroke:#181818;stroke-width:1;"/><polygon fill="#000000" points="125.7334,435.2472,130.9669,427.3061,125.2997,425.7465,125.7334,435.2472" style="stroke:#000000;stroke-width:1;"/><text fill="#000000" font-family="sans-serif" font-size="13" lengthAdjust="spacing" textLength="26" x="136.06" y="434.9269">&#25552;&#20379;</text><text fill="#000000" font-family="sans-serif" font-size="13" lengthAdjust="spacing" textLength="8.271" x="122.9491" y="403.6973">1</text><text fill="#000000" font-family="sans-serif" font-size="13" lengthAdjust="spacing" textLength="6.5" x="100.9454" y="474.1992">*</text></g><!--link Reservation to Seat--><g class="link" data-entity-1="ent0006" data-entity-2="ent0004" data-link-type="association" data-source-line="64" id="lnk12"><path codeLine="64" d="M414.94,392.21 C391.46,419.91 365.51,450.54 343.29,476.75" fill="none" id="Reservation-Seat" style="stroke:#181818;stroke-width:1;"/><polygon fill="#000000" points="387.8272,434.2408,395.9174,429.2407,391.4333,425.4404,387.8272,434.2408" style="stroke:#000000;stroke-width:1;"/><text fill="#000000" font-family="sans-serif" font-size="13" lengthAdjust="spacing" textLength="26" x="400.06" y="434.9269">&#39044;&#32422;</text><text fill="#000000" font-family="sans-serif" font-size="13" lengthAdjust="spacing" textLength="6.5" x="402.8494" y="411.9217">*</text><text fill="#000000" font-family="sans-serif" font-size="13" lengthAdjust="spacing" textLength="8.271" x="340.7984" y="465.8942">1</text></g><!--link Reservation to TimeSlot--><g class="link" data-entity-1="ent0006" data-entity-2="ent0005" data-link-type="association" data-source-line="65" id="lnk13"><path codeLine="65" d="M381.59,376.8 C346.63,397.91 306.77,420.57 269.06,438.86 C235.64,455.06 223.78,451.28 191.06,468.86 C182.15,473.65 173.11,479.1 164.28,484.81" fill="none" id="Reservation-TimeSlot" style="stroke:#181818;stroke-width:1;"/><polygon fill="#000000" points="300.5826,432.6518,309.9904,431.2578,307.3742,425.9942,300.5826,432.6518" style="stroke:#000000;stroke-width:1;"/><text fill="#000000" font-family="sans-serif" font-size="13" lengthAdjust="spacing" textLength="26" x="314.06" y="434.9269">&#23646;&#20110;</text><text fill="#000000" font-family="sans-serif" font-size="13" lengthAdjust="spacing" textLength="6.5" x="367.6105" y="378.3494">*</text><text fill="#000000" font-family="sans-serif" font-size="13" lengthAdjust="spacing" textLength="8.271" x="164.8544" y="474.0309">1</text></g><!--link Reservation to Order--><g class="link" data-entity-1="ent0006" data-entity-2="ent0007" data-link-type="association" data-source-line="66" id="lnk14"><path codeLine="66" d="M550.83,392.21 C571.8,417.08 594.75,444.3 615.21,468.57" fill="none" id="Reservation-Order" style="stroke:#181818;stroke-width:1;"/><polygon fill="#000000" points="593.2829,434.2491,589.6995,425.4394,585.2057,429.2282,593.2829,434.2491" style="stroke:#000000;stroke-width:1;"/><text fill="#000000" font-family="sans-serif" font-size="13" lengthAdjust="spacing" textLength="26" x="599.06" y="434.9269">&#20851;&#32852;</text><text fill="#000000" font-family="sans-serif" font-size="13" lengthAdjust="spacing" textLength="8.271" x="548.3217" y="411.9217">1</text><text fill="#000000" font-family="sans-serif" font-size="13" lengthAdjust="spacing" textLength="24.8066" x="584.078" y="457.7014">0..1</text></g><!--link Reservation to Violation--><g class="link" data-entity-1="ent0006" data-entity-2="ent0008" data-link-type="association" data-source-line="67" id="lnk15"><path codeLine="67" d="M483.06,392.21 C483.06,425.84 483.06,463.78 483.06,492.9" fill="none" id="Reservation-Violation" style="stroke:#181818;stroke-width:1;"/><polygon fill="#000000" points="488.06,435.4264,490.9989,426.3813,485.1211,426.3813,488.06,435.4264" style="stroke:#000000;stroke-width:1;"/><text fill="#000000" font-family="sans-serif" font-size="13" lengthAdjust="spacing" textLength="39" x="497.06" y="434.9269">&#21487;&#33021;&#26377;</text><text fill="#000000" font-family="sans-serif" font-size="13" lengthAdjust="spacing" textLength="8.271" x="474.7277" y="411.9217">1</text><text fill="#000000" font-family="sans-serif" font-size="13" lengthAdjust="spacing" textLength="6.5" x="476.6906" y="482.4044">*</text></g><!--link User to Order--><g class="link" data-entity-1="ent0002" data-entity-2="ent0007" data-link-type="association" data-source-line="68" id="lnk16"><path codeLine="68" d="M590.11,153.25 C609.21,239.37 640.92,382.33 660.02,468.43" fill="none" id="User-Order" style="stroke:#181818;stroke-width:1;"/><polygon fill="#000000" points="647.1427,315.7678,648.0532,306.3009,642.3149,307.5737,647.1427,315.7678" style="stroke:#000000;stroke-width:1;"/><text fill="#000000" font-family="sans-serif" font-size="13" lengthAdjust="spacing" textLength="26" x="655.06" y="315.3869">&#25345;&#26377;</text><text fill="#000000" font-family="sans-serif" font-size="13" lengthAdjust="spacing" textLength="8.271" x="583.2334" y="172.7772">1</text><text fill="#000000" font-family="sans-serif" font-size="13" lengthAdjust="spacing" textLength="6.5" x="652.2286" y="457.8">*</text></g><?plantuml-src ZPE_Rjim4CPtFmNXgQtX85az50ZGnKiAH4xt2tMn2KkaG58EtA93q0PeWQ39q2r5XmvPCWH5DmVfqyHk-XOzqVf3IJPGJRplFjtzI1xDLCW4DCICHs3ClhLQ7ASMXrp9GBn5jjlfk0mxCgZPkmwZhyzI2eOX6x20_7ASgn9YR6h9HCcMo3M6mWPSwImrb1R7g5skno8r5lBPypmQepr4QZO3AvGqfBylW0ARXlD3fUAIIbFmVrIHugvW2mmIuCBEMrJ44I1OuuEDH8n1f6oTYbmbaA6W3PIf1sgJEfed3ZLV5XaBDZMv7hWWXn1cVmOYWkC8VOO2hEAWO0E71UqsGObNO35RvYcKuUP4eWLtCd8HGrJrz6wfkezAszXzlIllJszpRaZotasC7gFfF14wBc-3W-GOLU44-TIReXZqz4054tNg7zDh7NeZhRAeZGcnIgNrTjoWTqLgt0dCHngaQTRgPPaIIUD9AaCVvurGKVtyPeNInhBhIId_ySObHCErIEhZJLtS0-xkTLc_pxelkhKR6x3bf-lb_OAzx5JFolEwgIRJnVdowdQRgHox0LjTNZt-lYQZtoJpPDQzijxV7n__B6wssxoAov_V7nTVcjQy-UxE3gtMzqdMyrzFPr-tMAbuTT3alRnx-l2m-lQPxCq3AkgjBiwSuHy0?></g></svg>