<svg xmlns="http://www.w3.org/2000/svg" xmlns:xlink="http://www.w3.org/1999/xlink" contentStyleType="text/css" data-diagram-type="STATE" height="664px" preserveAspectRatio="none" style="width:708px;height:664px;background:#FFFFFF;" version="1.1" viewBox="0 0 708 664" width="708px" zoomAndPan="magnify"><?plantuml 1.2026.3beta6?><defs/><g><g class="start_entity" data-qualified-name=".start." data-source-line="1" id="ent0002"><ellipse cx="451.41" cy="16" fill="#222222" rx="10" ry="10" style="stroke:#222222;stroke-width:1;"/></g><g class="entity" data-qualified-name="PendingPayment" id="ent0003"><rect fill="#F1F1F1" height="50" rx="12.5" ry="12.5" style="stroke:#181818;stroke-width:0.5;" width="138.3848" x="382.21" y="103"/><line style="stroke:#181818;stroke-width:0.5;" x1="382.21" x2="520.5948" y1="129.2969" y2="129.2969"/><text fill="#000000" font-family="sans-serif" font-size="14" lengthAdjust="spacing" textLength="118.3848" x="392.21" y="120.9951">PendingPayment</text></g><g class="entity" data-qualified-name="Confirmed" id="ent0005"><rect fill="#F1F1F1" height="50" rx="12.5" ry="12.5" style="stroke:#181818;stroke-width:0.5;" width="92.9258" x="89.94" y="230"/><line style="stroke:#181818;stroke-width:0.5;" x1="89.94" x2="182.8658" y1="256.2969" y2="256.2969"/><text fill="#000000" font-family="sans-serif" font-size="14" lengthAdjust="spacing" textLength="72.9258" x="99.94" y="247.9951">Confirmed</text></g><g class="entity" data-qualified-name="Expired" id="ent0007"><rect fill="#F1F1F1" height="50" rx="12.5" ry="12.5" style="stroke:#181818;stroke-width:0.5;" width="73.1631" x="518.83" y="310"/><line style="stroke:#181818;stroke-width:0.5;" x1="518.83" x2="591.9931" y1="336.2969" y2="336.2969"/><text fill="#000000" font-family="sans-serif" font-size="14" lengthAdjust="spacing" textLength="53.1631" x="528.83" y="327.9951">Expired</text></g><g class="entity" data-qualified-name="Cancelled" id="ent0009"><rect fill="#F1F1F1" height="50" rx="12.5" ry="12.5" style="stroke:#181818;stroke-width:0.5;" width="88.8174" x="407" y="390"/><line style="stroke:#181818;stroke-width:0.5;" x1="407" x2="495.8174" y1="416.2969" y2="416.2969"/><text fill="#000000" font-family="sans-serif" font-size="14" lengthAdjust="spacing" textLength="68.8174" x="417" y="407.9951">Cancelled</text></g><g class="entity" data-qualified-name="InUse" id="ent0011"><rect fill="#F1F1F1" height="50" rx="12.5" ry="12.5" style="stroke:#181818;stroke-width:0.5;" width="59.1563" x="300.83" y="390"/><line style="stroke:#181818;stroke-width:0.5;" x1="300.83" x2="359.9863" y1="416.2969" y2="416.2969"/><text fill="#000000" font-family="sans-serif" font-size="14" lengthAdjust="spacing" textLength="39.1563" x="310.83" y="407.9951">InUse</text></g><g class="entity" data-qualified-name="NoShow" id="ent0014"><rect fill="#F1F1F1" height="50" rx="12.5" ry="12.5" style="stroke:#181818;stroke-width:0.5;" width="76.8135" x="7" y="390"/><line style="stroke:#181818;stroke-width:0.5;" x1="7" x2="83.8135" y1="416.2969" y2="416.2969"/><text fill="#000000" font-family="sans-serif" font-size="14" lengthAdjust="spacing" textLength="56.8135" x="17" y="407.9951">NoShow</text></g><g class="entity" data-qualified-name="Completed" id="ent0016"><rect fill="#F1F1F1" height="50" rx="12.5" ry="12.5" style="stroke:#181818;stroke-width:0.5;" width="96.3574" x="292.23" y="517"/><line style="stroke:#181818;stroke-width:0.5;" x1="292.23" x2="388.5874" y1="543.2969" y2="543.2969"/><text fill="#000000" font-family="sans-serif" font-size="14" lengthAdjust="spacing" textLength="76.3574" x="302.23" y="534.9951">Completed</text></g><g class="end_entity" data-qualified-name=".end." data-source-line="13" id="ent0018"><ellipse cx="423.41" cy="639" fill="none" rx="11" ry="11" style="stroke:#222222;stroke-width:1;"/><ellipse cx="423.41" cy="639" fill="#222222" rx="6" ry="6" style="stroke:#222222;stroke-width:1;"/></g><g class="entity" data-qualified-name="GMN2" data-source-line="19" id="ent0003"><path d="M555.41,107.87 L555.41,124 L521.01,128 L555.41,132 L555.41,148.1356 A0,0 0 0 0 555.41,148.1356 L693.4101,148.1356 A0,0 0 0 0 693.4101,148.1356 L693.4101,117.87 L683.4101,107.87 L555.41,107.87 A0,0 0 0 0 555.41,107.87" fill="#FEFFDD" style="stroke:#181818;stroke-width:0.5;"/><path d="M683.4101,107.87 L683.4101,117.87 L693.4101,117.87 L683.4101,107.87" fill="#FEFFDD" style="stroke:#181818;stroke-width:0.5;"/><text fill="#000000" font-family="sans-serif" font-size="13" lengthAdjust="spacing" textLength="117.0001" x="561.41" y="124.9369">&#24231;&#20301;&#38145;&#23450;&#65292;&#31561;&#24453;&#25903;&#20184;</text><text fill="#000000" font-family="sans-serif" font-size="13" lengthAdjust="spacing" textLength="112.2711" x="561.41" y="140.0697">&#36229;&#26102;5&#20998;&#38047;&#33258;&#21160;&#36807;&#26399;</text></g><g class="entity" data-qualified-name="GMN5" data-source-line="24" id="ent0006"><path d="M217.41,234.87 L217.41,251 L183.21,255 L217.41,259 L217.41,275.1356 A0,0 0 0 0 217.41,275.1356 L381.4102,275.1356 A0,0 0 0 0 381.4102,275.1356 L381.4102,244.87 L371.4102,234.87 L217.41,234.87 A0,0 0 0 0 217.41,234.87" fill="#FEFFDD" style="stroke:#181818;stroke-width:0.5;"/><path d="M371.4102,234.87 L371.4102,244.87 L381.4102,244.87 L371.4102,234.87" fill="#FEFFDD" style="stroke:#181818;stroke-width:0.5;"/><text fill="#000000" font-family="sans-serif" font-size="13" lengthAdjust="spacing" textLength="143.0002" x="223.41" y="251.9369">&#25903;&#20184;&#23436;&#25104;&#65292;&#24231;&#20301;&#30830;&#35748;&#20998;&#37197;</text><text fill="#000000" font-family="sans-serif" font-size="13" lengthAdjust="spacing" textLength="117.0001" x="223.41" y="267.0697">&#21487;&#22312;&#24320;&#22987;&#21069;&#21462;&#28040;&#36864;&#27454;</text></g><g class="entity" data-qualified-name="GMN8" data-source-line="29" id="ent0009"><path d="M119.27,394.87 L119.27,411 L84.17,415 L119.27,419 L119.27,435.1356 A0,0 0 0 0 119.27,435.1356 L265.5411,435.1356 A0,0 0 0 0 265.5411,435.1356 L265.5411,404.87 L255.5411,394.87 L119.27,394.87 A0,0 0 0 0 119.27,394.87" fill="#FEFFDD" style="stroke:#181818;stroke-width:0.5;"/><path d="M255.5411,394.87 L255.5411,404.87 L265.5411,404.87 L255.5411,394.87" fill="#FEFFDD" style="stroke:#181818;stroke-width:0.5;"/><text fill="#000000" font-family="sans-serif" font-size="13" lengthAdjust="spacing" textLength="65.0001" x="125.27" y="411.9369">&#25187;&#38500;&#20449;&#29992;&#20998;</text><text fill="#000000" font-family="sans-serif" font-size="13" lengthAdjust="spacing" textLength="125.2711" x="125.27" y="427.0697">&#36830;&#32493;3&#27425;&#29245;&#32422;&#38480;&#21046;&#39044;&#32422;</text></g><!--link *start* to PendingPayment--><g class="link" data-entity-1="ent0002" data-entity-2="ent0003" data-link-type="dependency" data-source-line="1" id="lnk4"><path d="M451.41,26.38 C451.41,43.11 451.41,72.59 451.41,96.63" fill="none" id="*start*-to-PendingPayment" style="stroke:#181818;stroke-width:1;"/><polygon fill="#181818" points="451.41,102.63,455.41,93.63,451.41,97.63,447.41,93.63,451.41,102.63" style="stroke:#181818;stroke-width:1;"/><text fill="#000000" font-family="sans-serif" font-size="13" lengthAdjust="spacing" textLength="52.0001" x="452.41" y="69.0669">&#21019;&#24314;&#39044;&#32422;</text></g><!--link PendingPayment to Confirmed--><g class="link" data-entity-1="ent0003" data-entity-2="ent0005" data-link-type="dependency" data-source-line="3" id="lnk6"><path d="M389.92,153.4 C329.23,177.48 243.3472,211.5676 188.4672,233.3376" fill="none" id="PendingPayment-to-Confirmed" style="stroke:#181818;stroke-width:1;"/><polygon fill="#181818" points="182.89,235.55,192.7307,235.9496,187.5377,233.7063,189.7809,228.5133,182.89,235.55" style="stroke:#181818;stroke-width:1;"/><text fill="#000000" font-family="sans-serif" font-size="13" lengthAdjust="spacing" textLength="52.0001" x="314.41" y="196.0669">&#25903;&#20184;&#25104;&#21151;</text></g><!--link PendingPayment to Expired--><g class="link" data-entity-1="ent0003" data-entity-2="ent0007" data-link-type="dependency" data-source-line="4" id="lnk8"><path d="M467.88,153.24 C481.11,173.3 499.69,202.81 513.41,230 C526.74,256.43 536.9853,282.5028 544.7853,303.9028" fill="none" id="PendingPayment-to-Expired" style="stroke:#181818;stroke-width:1;"/><polygon fill="#181818" points="546.84,309.54,547.5161,299.7144,545.1278,304.8423,539.9998,302.454,546.84,309.54" style="stroke:#181818;stroke-width:1;"/><text fill="#000000" font-family="sans-serif" font-size="13" lengthAdjust="spacing" textLength="94.9293" x="498.41" y="196.0669">&#25903;&#20184;&#36229;&#26102;(5min)</text></g><!--link PendingPayment to Cancelled--><g class="link" data-entity-1="ent0003" data-entity-2="ent0009" data-link-type="dependency" data-source-line="5" id="lnk10"><path d="M451.41,153.3 C451.41,207.14 451.41,329.98 451.41,383.76" fill="none" id="PendingPayment-to-Cancelled" style="stroke:#181818;stroke-width:1;"/><polygon fill="#181818" points="451.41,389.76,455.41,380.76,451.41,384.76,447.41,380.76,451.41,389.76" style="stroke:#181818;stroke-width:1;"/><text fill="#000000" font-family="sans-serif" font-size="13" lengthAdjust="spacing" textLength="52.0001" x="452.41" y="259.5669">&#29992;&#25143;&#21462;&#28040;</text></g><!--link Confirmed to InUse--><g class="link" data-entity-1="ent0005" data-entity-2="ent0011" data-link-type="dependency" data-source-line="7" id="lnk12"><path d="M151.82,280.45 C167.21,303.34 192.67,337.32 221.41,360 C245.44,378.96 256,376.37 283.41,390 C288.9,392.73 289.3906,392.9626 295.0206,395.8226" fill="none" id="Confirmed-to-InUse" style="stroke:#181818;stroke-width:1;"/><polygon fill="#181818" points="300.37,398.54,294.1576,390.8976,295.9122,396.2755,290.5344,398.0301,300.37,398.54" style="stroke:#181818;stroke-width:1;"/><text fill="#000000" font-family="sans-serif" font-size="13" lengthAdjust="spacing" textLength="52.0001" x="222.41" y="339.5669">&#29992;&#25143;&#31614;&#21040;</text></g><!--link Confirmed to Cancelled--><g class="link" data-entity-1="ent0005" data-entity-2="ent0009" data-link-type="dependency" data-source-line="8" id="lnk13"><path d="M183.19,273.85 C188.65,275.93 194.15,278.01 199.41,280 C234.93,293.43 248.27,288.26 279.41,310 C303.44,326.78 298.7,342.77 322.41,360 C347.84,378.48 374.8726,390.149 400.9926,399.079" fill="none" id="Confirmed-to-Cancelled" style="stroke:#181818;stroke-width:1;"/><polygon fill="#181818" points="406.67,401.02,399.4479,394.3236,401.9389,399.4025,396.8599,401.8934,406.67,401.02" style="stroke:#181818;stroke-width:1;"/><text fill="#000000" font-family="sans-serif" font-size="13" lengthAdjust="spacing" textLength="101.1437" x="323.41" y="339.5669">&#29992;&#25143;&#21462;&#28040;(&#24320;&#22987;&#21069;)</text></g><!--link Confirmed to NoShow--><g class="link" data-entity-1="ent0005" data-entity-2="ent0014" data-link-type="dependency" data-source-line="9" id="lnk15"><path d="M102.25,280.27 C92.4,288.71 82.43,298.88 75.41,310 C59.85,334.62 53.1082,361.6403 49.4482,383.7903" fill="none" id="Confirmed-to-NoShow" style="stroke:#181818;stroke-width:1;"/><polygon fill="#181818" points="48.47,389.71,53.8837,381.4825,49.2851,384.7769,45.9908,380.1783,48.47,389.71" style="stroke:#181818;stroke-width:1;"/><text fill="#000000" font-family="sans-serif" font-size="13" lengthAdjust="spacing" textLength="91.0001" x="76.41" y="339.5669">&#26102;&#27573;&#32467;&#26463;&#26410;&#31614;&#21040;</text></g><!--link InUse to Completed--><g class="link" data-entity-1="ent0011" data-entity-2="ent0016" data-link-type="dependency" data-source-line="11" id="lnk17"><path d="M323.76,440.39 C320.91,454.13 318.77,471.57 321.41,487 C323.11,496.99 324.3773,501.9705 327.7973,511.1105" fill="none" id="InUse-to-Completed" style="stroke:#181818;stroke-width:1;"/><polygon fill="#181818" points="329.9,516.73,330.4923,506.899,328.1478,512.0471,322.9996,509.7026,329.9,516.73" style="stroke:#181818;stroke-width:1;"/><text fill="#000000" font-family="sans-serif" font-size="13" lengthAdjust="spacing" textLength="108.38" x="322.41" y="483.0669">&#26102;&#27573;&#32467;&#26463;/&#29992;&#25143;&#31163;&#24320;</text></g><!--link Cancelled to *end*--><g class="link" data-entity-1="ent0009" data-entity-2="ent0018" data-link-type="dependency" data-source-line="13" id="lnk19"><path d="M448.36,440.18 C442.29,488.28 429.6808,588.2472 425.4608,621.7072" fill="none" id="Cancelled-to-*end*" style="stroke:#181818;stroke-width:1;"/><polygon fill="#181818" points="424.71,627.66,429.8047,619.2313,425.3356,622.6993,421.8676,618.2302,424.71,627.66" style="stroke:#181818;stroke-width:1;"/></g><!--link Expired to *end*--><g class="link" data-entity-1="ent0007" data-entity-2="ent0018" data-link-type="dependency" data-source-line="14" id="lnk20"><path d="M548.9,360.23 C535.55,407.83 502.31,516.02 455.41,598 C448.43,610.2 441.9246,618.1473 434.8746,625.8373" fill="none" id="Expired-to-*end*" style="stroke:#181818;stroke-width:1;"/><polygon fill="#181818" points="430.82,630.26,439.8504,626.329,434.1988,626.5744,433.9535,620.9229,430.82,630.26" style="stroke:#181818;stroke-width:1;"/></g><!--link NoShow to *end*--><g class="link" data-entity-1="ent0014" data-entity-2="ent0018" data-link-type="dependency" data-source-line="15" id="lnk21"><path d="M79.01,440.29 C122.84,471.47 202.45,526.39 274.41,567 C325.06,595.59 383.5468,621.1359 407.8868,631.4659" fill="none" id="NoShow-to-*end*" style="stroke:#181818;stroke-width:1;"/><polygon fill="#181818" points="413.41,633.81,406.688,626.6118,408.8074,631.8566,403.5625,633.976,413.41,633.81" style="stroke:#181818;stroke-width:1;"/></g><!--link Completed to *end*--><g class="link" data-entity-1="ent0016" data-entity-2="ent0018" data-link-type="dependency" data-source-line="16" id="lnk22"><path d="M361.78,567.46 C379.84,588.14 400.6609,611.9729 412.5509,625.5729" fill="none" id="Completed-to-*end*" style="stroke:#181818;stroke-width:1;"/><polygon fill="#181818" points="416.5,630.09,413.5877,620.6816,413.209,626.3257,407.5649,625.9471,416.5,630.09" style="stroke:#181818;stroke-width:1;"/></g><?plantuml-src TPA_Jy907CNt-ojk11BYO5WSN8o3Yo4nJeI1I84cq19iecwOY1I4G9I8ADgW10Y1uc9DA3_-6UxQJluBtdbj8GsET_U-d_VktKK2KHWCxiCm9yHv8HcENMKuGO9x4CalI9zQxpV6j0U0vvXE78X2Wizbk3WHuyPafJzXkOxAoZRjuMMMpsqeJQs0cvelbE45_rPsJ3ZZqkc_2QCnmF8tgZrYJGPWxKfrHyBfEUTgZF42oPyUoNye7vhbKVyEbQf-pyInU98IBsZMfeRLBqD_mAyARWzjF62ch89CDir9x68RuXqxJqyd9YIp6u4EHG9HuFJXh6rBPxdcEZj042KEvlXaIe9YmlDQ048qxQ_cLQjnZTJddrd569VGei2w9gUixX2IRwrxnImEKNbWBekuhG32WHJjDN0R8TCCWzGAUL_2PbP6HpNLBYKMgjI_Da7jWLifgzZAv_5eyQy7kpGrA7rOhUvgsI6r4I8Dl7mpzF4k7dKCUKu-eDMg8rcpFwF3-mK0?></g></svg>